<svg id="Storybooks_Arabic_Logo" viewBox="0 0 667 511" version="1" xmlns="http://www.w3.org/2000/svg"><defs id="defs44"><filter id="filter1795" x="0" width="1" y="0" height="1" color-interpolation-filters="sRGB"><feGaussianBlur stdDeviation="28" id="feGaussianBlur1797"/></filter><path transform="rotate(30)" stroke-miterlimit="10" d="M-1 55h2v-93c2-2 2-5 2-8 0-2 0-10-3-19-3 9-3 17-3 19 0 3 0 6 2 8z" id="spearshape"/></defs><style id="style3">.st0{fill:#337fbe}.st1{fill:#3bb54a}</style><g id="g3036" transform="translate(-43 -52)"><g id="Globe"><circle id="circle8" r="222" cy="305" cx="376" class="st0" fill="#337fbe"/><g id="g10"><path id="path12" d="M176 212c3 0 5 4 8 6l9 3 3 2c1 3-3 5-2 7l2 3v2l3 3v2l1 2 8 4 2 1c6 5 0 16-1 21-2 12 3 18 9 26l4 6c6 8 15 15 22 22l2 3 1 4 7 6 18 8c7 4 13 2 19 5 10 3 21 7 29 14 3 3 3 8 3 12l-1 3-1 2-3 2-1 1c-1 1-2 3-1 4l-2 3-1 7 1 5 2 2 1 2c0 3 2 6 4 7l5 2 2 2c3 2 6 3 8 6 3 6-6 18-6 25v8l-5 15c-2 4-5 10-5 15l7 7 1 3-1 2-3 16 1 2 1 2c3 3 8 5 13 6l1-11a26 26 0 0 1 6-14h1c2 0 3-1 4-3l2-5c4-9 12-10 17-17l6-8 8-10c2-3 3-7 6-9l4-3c7-3 19-15 15-23l-2-3 2-4c2-4 18-21 8-26l-5-1c-5-2-8-7-12-9-6-2-13 0-17-6l-2-4-4-5-6-6-2-1c-3-2-9 1-14 0l-3 2c-3 0-6 0-7-2l-2-4c-2-3-8-5-9-8-1-1-3 0-4 1l-1 3-6 8c-3-1-5-3-6-5l-1-3-2-2-5-2c-2-1-5-3-5-6v-5l1-3v-2h-3l-3 3-4 1-3 2c-3 1-8-1-11-2-2 0-4-1-5-3-2-4-2-13 1-16 4-4 3-8 11-8l10 2h10l2 4 2 4 1 2v3c0 4 0 7 2 9l2-2 2-1v-2l-2-13v-3l1-2 5-11c1-3 2-7 4-8 0-2 1-3 3-3l4-1 3-2a68 68 0 0 1 14-9l5-2c1-2 0-4 2-5l2-2-1-1-5-2h-3c-2 0-4-2-5-4l-1-1 1-1 4-7 1-1 4-1 4 2h7l3 2h3l2-4c-1-3 0-8 3-11l1-1v-2c0-2-1-4-3-5s-5 1-8 1l-10-2-1-1-1-1c-1-2-3-13-6-14l-8-1c-1-1-2 0-2 1v1l-2 2-3-2-9-14-1-1h-2c-2 0-5 0-5 2l-2 2c0 6 4 14 4 20v3l-1 1c-3 2-5 12-8 13h-2l-4-3-3-4c-1-2-4-3-6-4-3-2-12-7-13-11-2-4 2-6 3-10s1-7 6-8c7-3 15-7 22-8 3 0 5 0 6-2 1-3 0-5-2-7l-8-10c-1-1-3-10-6-7l-1 1c-2 3-5 4-8 3-2 0-2-2-2-3v-12c0-2 0-4-2-5l-2 1c-2 1-5 2-6 4l-3 2h-9l-1-1-8-14-2-1c-2 0-1 5-3 6-3 1-7 4-10 2l-5-3c-4-3-6-1-8 2l-1 1 1 2 7 8c3 3-4 6 3 7l3 4 2 4 1 1c3 5-13 3-14 2-8-4-19-11-27-11-15 15-32 47-33 52" class="st1" fill="#3bb54a"/><path id="path14" d="M332 323h-5c0 2 2 3 3 4l2 3 5 1 6-1h3l3-1 2-2-1-1-5-1h-2l-4-4h-5l-3 2" class="st1" fill="#3bb54a"/><path id="path16" d="M591 354c0-3 1-8-2-11l-2-3c-6-9-1-20-15-25-7-2-14-2-21-1l-6-1c-6-3-4-12-8-18s-12-5-20-4l-26 3-7 2c-5 2-8 7-10 12-8 19-17 41-8 59 3 5 8 10 13 8l8-7c5-4 12-3 17 1l16 10c4 2 9 3 11 7l1 7c0 9 0 19-4 27-2 4-5 9-3 13l4 4c7 5 7 15 6 24 0-5 15-17 18-21a219 219 0 0 0 39-80" class="st1" fill="#3bb54a"/><path id="path18" d="M596 335c-5-6-5-14-9-19-1-2-3-3-3-5l1-5c1-5 2-11-2-15-4-5-13-5-17-10l-2-2c-2-1-4 0-5 1-4 2-9 2-13 1v-7l-7-2c-3 1-5 3-8 3l-4-1-9 1-6 3c-2 1-4 3-4 5-2 0-5 1-6 3l-6 1c-4 1-10 2-12-1l-3-5-2-9c-1-3-2-7 1-8l4-1c3 0 5-2 6-5h2c1-5-4-11-1-15l6-3c1-1 3-3 5-3h5l4-3c3-1 5 0 7 2l6 5h7l2-1 1-2c0-4 0-8-3-10l-3-3-3-3-2-4c1-2 3-2 4-2h5l1-3h9l7-2c3 1 4 4 5 7l2 7 3 2c2 0 2-3 2-5 1 1 3-1 4-3 2-6 2-13-1-19-3-5-8-9-8-15-4 4-6 8-8 13 0 3-1 6-3 7l-4 2-19 4c-2 0-5 0-7-2s-1-7 1-9l6-8 2-4c2-2 5-2 8-3 3-2 4-6 4-9 1-3 1-7 3-10 1-2 3-4 5-3l5 2c35 43 57 101 47 170" class="st1" fill="#3bb54a"/><path id="path20" d="m493 212-3 4 1 5-1 4-6 9c-2 1-4 3-4 5v1l2 1 5-1 7-4 3-1c5-1 8-7 6-11l-4-8c0-2 0-4-2-5l-2-2-2 1" class="st1" fill="#3bb54a"/><path id="path22" d="M458 177c-2 0-4 3-6 5s-4 4-7 3l11 14 2 2h10c4-2 5-6 7-9l5-3 2-5-1-8c-2-2-7-2-10-2l-6 1c-3 0-6 1-8 3" class="st1" fill="#3bb54a"/><path id="path24" d="M378 140c3 15 7 28 13 41l2 7c4 11 15 19 26 19l2-18 1-3 5-1c3-1 3-7 6-8h4c4 0 10-4 14-6l2-1 1-2a1388 1388 0 0 0 6-15c0-2-3-3-3-6-1-4 2-9 2-13 0-3 0-10 5-9l4-13c1-2 1-5-1-6h-4c-4-1-6-6-10-5-4 0-5 3-8 4s-6-1-7-3c-1-3 1-8 3-10l-28-6-3 9h-9c-2 3-5 6-9 8-3 1-6 2-8 1-3-2-5-6-9-6l-4-13c-4 0-9-1-13 1l-3 2c-4 2-9 0-13-1l-2 17c0 2 0 5-2 6-3 2-7-1-7-4-3-3-5-8-5-13-6-3-13-2-18 3 6 3 10 9 11 16-4 2-8 0-12-2-4-3-9-5-14-6-4-1-8-1-10 2-1 2 0 4 1 6-3 4-9 5-13 2l-4-2-6 3-11 7c-1 2 6 4 8 6l7-10c5 0 7 5 9 9 1 4 2 9 5 12h5c2-1 2-14 2-15 0 0 8-6 9-5l1 1c4 4 4 11-1 15 1 1 4 2 6 1l10-2c4-1 6-9 10-5 2 4 6 10 3 13l-3 3c-4 2-5 7-4 11 2 3 6 6 10 6h4l3 2c5 4 9 11 7 16 3 3 5 7 9 9 3 3 9 3 11-2-4-2-7-6-8-10l11-2 3-9-7-7h-7c-4-1-6-4-10-6-3-1-8 1-9-1l-1-4 2-10c0-3 0-6 2-8 4-9 20-18 30-16 1 4 1 8-2 10l-4 1-6 5c-2 2-3 7 0 8-2 0-3 3-1 5l6 1 5-4 8-2c2 1 5 3 4 6" class="st1" fill="#3bb54a"/></g></g><g id="Book"><path id="path38" d="m695 483-5 16a383 383 0 0 0-314 40l-16-11a385 385 0 0 0-298-29l-5-16-7 20 4 17s157-47 276 8c5 2 1 10 12 23 8 8 20 12 34 12 10 0 20-1 29-7 7-5 11-12 14-20 0-2 0-8 3-8 144-55 274-7 274-7l6-18-7-20z" class="st0" fill="#337fbe"/><path d="M709 435c-186-11-273 47-333 84-49-32-112-82-280-84-17-1-34 0-53 2l19 62s155-53 290 30l-2 3c-2 5 1 11 6 14 8 5 18 5 28 4 11-1 22-7 20-17l-3-4c135-82 289-30 289-30l19-62v-2z" id="Middle_Book" fill="#d2d3d4"/><path d="M665 410c-187-10-289 98-289 98S276 400 89 410l-46 27s38-3 56-2c165 3 230 54 277 84 42-25 118-83 281-85l52 2-44-26z" id="Top_Book" fill="#e6e6e6"/></g></g><g id="g45586" style="font-size:3.175px;line-height:1.25;font-family:'Open Sans';-inkscape-font-specification:'Open Sans, Normal';letter-spacing:0;word-spacing:0;fill:green;stroke-width:.529167" transform="matrix(2.4825 0 0 2.4825 80.852 -95.548)"><path d="M175.389 108.04h7.884v40.217h-7.884z" style="font-size:52.9167px;fill:green;stroke:#000;stroke-width:.529167" id="path45528"/><path id="path45530" style="font-size:52.9167px;fill:green;stroke:#000;stroke-width:2" d="M593.088 408.34v128h-46c-7.067 0-13.067-1.334-18-4 6.667-4.267 12.4-9.8 17.2-16.6 4.932-6.933 8.733-14.734 11.4-23.4 2.666-8.667 4-17.8 4-27.4-14.4-8-31.133-12-50.2-12-9.333 0-19.068 1.866-29.2 5.6-10.134 3.732-19.134 8.866-27 15.4 1.2 7.2 3.399 14.734 6.599 22.601 3.333 7.733 7.201 14.865 11.601 21.398 4.4 6.667 8.6 11.535 12.6 14.602-2.267 1.067-5.2 1.999-8.8 2.799-3.6.666-6.934 1-10 1h-44v-75h-29.8v100.8c0 6.134-1.666 11.2-5 15.2-3.2 4.133-7.467 6.201-12.8 6.201-3.734 0-7.001-.401-9.801-1.201-2.667-.8-5.733-2.333-9.2-4.6l-12 19.4c6.267 4.267 12.267 7.2 18 8.8 5.734 1.6 12.001 2.4 18.801 2.4 12.667 0 22.799-4.066 30.399-12.2 7.6-8 11.4-18.866 11.4-32.599v-3.201h47.201c12.534 0 24.933-3.733 37.2-11.2 4.8 3.2 10.6 5.867 17.4 8 6.8 2.134 13.333 3.2 19.6 3.2h78.199v-152zm-82.4 68.6c9.2 0 16.732 1.201 22.6 3.601-1.2 17.067-9.6 30.266-25.2 39.6-5.2-3.467-9.867-8.401-14-14.801-4-6.534-7-13.466-9-20.799 2.933-2.133 6.865-3.934 11.799-5.4 4.933-1.467 9.534-2.202 13.8-2.202z" transform="scale(.26458)"/><path id="path45536" style="font-size:52.9167px;fill:green;stroke:#000;stroke-width:2" d="M120.688 410.14c-4.134 0-7.4 1.266-9.8 3.8-2.4 2.533-3.599 6.066-3.599 10.6 0 4.4 1.2 7.934 3.6 10.6 2.4 2.534 5.665 3.8 9.799 3.8 4 0 7.201-1.266 9.601-3.8 2.4-2.533 3.6-6.068 3.6-10.6 0-4.534-1.2-8.067-3.6-10.6-2.267-2.534-5.468-3.8-9.601-3.8zm34 0c-4.134 0-7.4 1.266-9.8 3.8-2.4 2.533-3.599 6.066-3.599 10.6 0 4.4 1.2 7.934 3.6 10.6 2.4 2.534 5.665 3.8 9.798 3.8 4 0 7.202-1.266 9.602-3.8 2.4-2.666 3.6-6.2 3.6-10.6 0-4.534-1.2-8.067-3.6-10.6-2.267-2.534-5.468-3.8-9.601-3.8zm-15.6 41.401v9.799h-5.6c-11.2 0-21.2 1.934-30 5.8-8.8 3.867-15.734 9.534-20.8 17-5.067 7.334-7.6 16.4-7.6 27.2 0 15.467 5.068 27.534 15.201 36.201 10.267 8.533 24.666 12.799 43.2 12.799h202.199v-99h-29.8v75h-53v-75h-29.8v75h-54V451.54zm-5 33.799h5.201v51h-5.602c-9.066 0-15.998-2.134-20.798-6.4-4.8-4.4-7.202-10.532-7.202-18.399 0-8.533 2.468-15 7.4-19.4 4.934-4.534 11.934-6.801 21-6.801zm84.8 96.201c-4.133 0-7.4 1.265-9.8 3.799-2.4 2.666-3.6 6.2-3.6 10.6 0 4.4 1.2 7.867 3.6 10.4 2.4 2.667 5.667 4 9.8 4 4 0 7.2-1.266 9.6-3.799 2.4-2.533 3.6-6.068 3.6-10.602 0-4.533-1.2-8.066-3.6-10.6-2.266-2.533-5.466-3.798-9.6-3.798zm34 0c-4.133 0-7.4 1.265-9.8 3.799-2.4 2.666-3.6 6.2-3.6 10.6 0 4.4 1.2 7.867 3.6 10.4 2.4 2.667 5.667 4 9.8 4 4 0 7.2-1.333 9.6-4 2.4-2.533 3.6-6 3.6-10.4s-1.2-7.934-3.6-10.6c-2.266-2.534-5.466-3.799-9.6-3.799zm66.2 0c-4.267 0-7.6 1.265-10 3.799-2.267 2.666-3.4 6.2-3.4 10.6 0 4.4 1.2 7.867 3.6 10.4 2.4 2.667 5.667 4 9.8 4 4 0 7.2-1.333 9.6-4 2.4-2.533 3.6-6 3.6-10.4 0-4.534-1.2-8.067-3.6-10.6-2.267-2.534-5.467-3.799-9.6-3.799z" transform="scale(.26458)"/></g></svg>